<!DOCTYPE svg PUBLIC "-//W3C//DTD SVG 20010904//EN" "http://www.w3.org/TR/2001/REC-SVG-20010904/DTD/svg10.dtd">
<svg xmlns="http://www.w3.org/2000/svg" version="1.0" width="16.000000pt" height="16.000000pt" viewBox="0 0 16.000000 16.000000" preserveAspectRatio="xMidYMid meet">
  <g transform="translate(0.000000,16.000000) scale(0.006154,-0.006154)" fill="#000000" stroke="none">
    <path d="M1173 2509 c-43 -22 -85 -46 -93 -53 -8 -7 -40 -25 -70 -41 -30 -16 -66 -36 -80 -46 -14 -9 -95 -57 -180 -106 -509 -294 -495 -285 -530 -364 -20 -48 -21 -59 -18 -612 l3 -562 28 -47 c23 -40 100 -108 122 -108 3 0 18 -9 33 -19 78 -55 827 -482 860 -491 44 -11 112 -6 146 12 17 9 585 339 714 415 17 10 70 41 119 70 48 28 101 65 117 82 60 63 61 71 60 671 0 526 -1 547 -21 590 -11 25 -32 57 -47 72 -22 21 -188 123 -391 238 -16 10 -145 85 -286 167 -142 83 -272 155 -289 162 -63 21 -114 14 -197 -30z m-213 -944 c61 -22 121 -74 155 -136 29 -53 29 -56 30 -217 0 -148 -2 -165 -18 -177 -11 -7 -28 -12 -39 -10 -22 5 -48 23 -46 33 2 20 -6 19 -53 -5 -100 -50 -221 -34 -306 41 -163 144 -103 413 107 477 42 13 125 10 170 -6z m360 0 c15 -14 21 -14 53 0 67 28 162 14 216 -30 30 -26 51 -32 51 -16 0 5 23 21 52 35 113 56 242 14 300 -97 20 -38 22 -58 24 -221 1 -162 -1 -181 -17 -197 -24 -24 -44 -24 -67 -1 -17 17 -19 37 -19 184 0 142 -3 170 -19 196 -45 77 -162 75 -204 -3 -9 -18 -14 -75 -15 -195 0 -93 -5 -174 -10 -179 -19 -18 -51 -21 -71 -7 -17 13 -19 31 -24 194 -5 174 -6 181 -29 206 -37 39 -92 51 -137 30 -63 -30 -68 -47 -69 -228 -2 -164 -7 -205 -28 -208 -7 0 -19 -2 -27 -3 -8 -1 -23 5 -32 13 -16 14 -18 39 -18 263 0 212 2 250 16 263 20 20 53 20 74 1z"/>
    <path d="M813 1468 c-46 -12 -100 -70 -113 -120 -41 -149 117 -272 252 -196 146 83 98 307 -70 322 -20 2 -52 -1 -69 -6z"/>
  </g>
</svg>
